<svg aria-hidden="true" style="position: absolute; width: 0; height: 0; overflow: hidden;" version="1.1" xmlns="http://www.w3.org/2000/svg" xmlns:xlink="http://www.w3.org/1999/xlink">
<defs>
<symbol id="icon-heart" viewBox="0 0 32 32">
<path stroke-linejoin="round" stroke-linecap="round" stroke-miterlimit="4" stroke-width="2.6667" d="M27.787 6.147c-0.681-0.681-1.49-1.222-2.38-1.591s-1.844-0.559-2.807-0.559c-0.963 0-1.917 0.19-2.807 0.559s-1.698 0.909-2.38 1.591l-1.413 1.413-1.413-1.413c-1.376-1.376-3.241-2.148-5.187-2.148s-3.811 0.773-5.187 2.148c-1.376 1.376-2.148 3.241-2.148 5.187s0.773 3.811 2.148 5.187l11.787 11.787 11.787-11.787c0.681-0.681 1.222-1.49 1.591-2.38s0.559-1.844 0.559-2.807c0-0.963-0.19-1.917-0.559-2.807s-0.909-1.699-1.591-2.38z"></path>
</symbol>
<symbol id="icon-cross" viewBox="0 0 20 20">
<path stroke-linejoin="round" stroke-linecap="round" stroke-miterlimit="4" stroke-width="1.5" d="M15 5l-10 10"></path>
<path stroke-linejoin="round" stroke-linecap="round" stroke-miterlimit="4" stroke-width="1.5" d="M5 5l10 10"></path>
</symbol>
<symbol id="icon-logo" viewBox="0 0 20 20">
<path d="M19.583 5.833c0.23 0 0.417 0.187 0.417 0.417v0.426c0 0.661-0.772 0.824-1.347 0.824l-0.905-1.667h1.835zM18.383 8.755c0.532 0.988 0.788 1.877 0.788 3.055 0 1.142-0.331 2.111-0.838 3.318v1.539c0 0.46-0.373 0.833-0.833 0.833h-1.25c-0.46 0-0.833-0.373-0.833-0.833v-0.833h-10.833v0.833c0 0.46-0.373 0.833-0.833 0.833h-1.25c-0.46 0-0.833-0.373-0.833-0.833v-1.539c-0.507-1.207-0.838-2.176-0.838-3.318 0-1.178 0.256-2.067 0.788-3.055 0.691-1.281 1.542-2.878 2.442-4.377 0.69-1.152 1.052-1.422 1.898-1.574 1.277-0.229 2.432-0.304 4.042-0.304s2.766 0.075 4.043 0.304c0.847 0.152 1.208 0.422 1.898 1.574 0.899 1.499 1.751 3.096 2.442 4.377zM5 11.25c0-0.69-0.56-1.25-1.25-1.25s-1.25 0.56-1.25 1.25 0.56 1.25 1.25 1.25 1.25-0.56 1.25-1.25zM13.333 12.083c0-0.23-0.187-0.417-0.417-0.417h-5.833c-0.23 0-0.417 0.187-0.417 0.417s0.187 0.417 0.417 0.417h5.833c0.23 0 0.417-0.187 0.417-0.417zM15.784 7.478s-0.617-1.522-1.359-2.618c-0.168-0.248-0.429-0.418-0.724-0.472-1.259-0.227-2.363-0.299-3.701-0.299s-2.442 0.072-3.701 0.299c-0.295 0.053-0.556 0.223-0.724 0.472-0.743 1.096-1.359 2.618-1.359 2.618 1.367 0.261 3.591 0.414 5.784 0.414s4.418-0.153 5.784-0.414zM17.5 11.25c0-0.69-0.56-1.25-1.25-1.25s-1.25 0.56-1.25 1.25 0.56 1.25 1.25 1.25 1.25-0.56 1.25-1.25zM2.252 5.833h-1.835c-0.23 0-0.417 0.187-0.417 0.417v0.426c0 0.661 0.772 0.824 1.347 0.824l0.905-1.667z"></path>
</symbol>
</defs>
</svg>
